<svg width="30" height="30" viewBox="0 0 30 30" fill="none" xmlns="http://www.w3.org/2000/svg">
<path d="M15 28.75C8.05375 27.2062 2.5 20.6525 2.5 13.75V6.25L15 1.25L27.5 6.25V13.75C27.5 20.655 21.9463 27.2062 15 28.75ZM5 7.5V13.75C5.07143 16.6402 6.08795 19.4273 7.89397 21.6848C9.69999 23.9423 12.196 25.5459 15 26.25C17.804 25.5459 20.3 23.9423 22.106 21.6848C23.912 19.4273 24.9286 16.6402 25 13.75V7.5L15 3.75L5 7.5Z" fill="#F8F8F8"/>
<path d="M15 13.75C16.7259 13.75 18.125 12.3509 18.125 10.625C18.125 8.89911 16.7259 7.5 15 7.5C13.2741 7.5 11.875 8.89911 11.875 10.625C11.875 12.3509 13.2741 13.75 15 13.75Z" fill="#F8F8F8"/>
<path d="M8.75 18.75C9.36611 19.8728 10.2695 20.8116 11.3677 21.4705C12.4659 22.1295 13.7194 22.4847 15 22.5C16.2806 22.4847 17.5341 22.1295 18.6323 21.4705C19.7305 20.8116 20.6339 19.8728 21.25 18.75C21.2187 16.38 17.0725 15 15 15C12.9162 15 8.78125 16.38 8.75 18.75Z" fill="#F8F8F8"/>
</svg>
